<svg xmlns="http://www.w3.org/2000/svg" width="56" height="16" viewBox="0 0 56 16" fill="none">
    <path
        d="M2.67426 0.59375C2.5969 0.593934 2.52213 0.621657 2.46335 0.671951C2.40457 0.722245 2.36562 0.791826 2.35347 0.868228L0.503664 12.6001C0.496911 12.643 0.499514 12.6868 0.511292 12.7285C0.523069 12.7702 0.543743 12.8089 0.571893 12.8419C0.600042 12.8749 0.634991 12.9014 0.674355 12.9196C0.713718 12.9378 0.756559 12.9472 0.799924 12.9473H2.99413C3.07143 12.9471 3.14615 12.9195 3.20492 12.8693C3.26369 12.8191 3.30269 12.7496 3.31494 12.6733L3.85793 9.22798C3.87018 9.15166 3.90918 9.08219 3.96795 9.03199C4.02672 8.98179 4.10143 8.95413 4.17872 8.95396H6.17299C8.50387 8.95396 10.4821 7.25367 10.8435 4.94916C11.2081 2.62562 9.39311 0.598565 6.81985 0.59375H2.67426ZM4.80701 3.21287H6.40298C7.71689 3.21287 8.14432 3.98791 8.00903 4.84528C7.87374 5.70449 7.2099 6.33737 5.93863 6.33737H4.31424L4.80701 3.21287ZM15.3062 4.01085C14.7522 4.01291 14.1145 4.12619 13.3988 4.42428C11.7575 5.1083 10.9689 6.52265 10.6343 7.5536C10.6343 7.5536 9.56875 10.699 11.9762 12.4272C11.9762 12.4272 14.2087 14.0904 16.7224 12.3243L16.6793 12.6001C16.6725 12.643 16.6751 12.6868 16.6869 12.7285C16.6987 12.7702 16.7193 12.8089 16.7475 12.8419C16.7756 12.8749 16.8106 12.9014 16.8499 12.9196C16.8893 12.9378 16.9322 12.9472 16.9755 12.9473H19.0583C19.2179 12.9473 19.3536 12.8308 19.3786 12.6728L20.6458 4.63868C20.6525 4.59585 20.6499 4.55206 20.6381 4.51032C20.6264 4.46859 20.6057 4.4299 20.5775 4.39691C20.5494 4.36392 20.5144 4.33742 20.4751 4.31923C20.4357 4.30104 20.3929 4.29158 20.3495 4.29151H18.2667C18.1067 4.29151 17.9709 4.408 17.9459 4.56553L17.8781 4.99777H17.8776C17.8776 4.99777 16.9682 4.00465 15.306 4.01085H15.3062ZM15.3743 6.54856C15.6135 6.54856 15.8322 6.58112 16.0283 6.64441C16.9267 6.9331 17.4366 7.79574 17.289 8.73177C17.1071 9.88425 16.1622 10.7331 14.9505 10.7331C14.7114 10.7331 14.4922 10.7003 14.2961 10.6373C13.3977 10.3486 12.8847 9.48549 13.0326 8.54947C13.2145 7.39744 14.1626 6.54856 15.3743 6.54856Z"
        fill="white" />
    <path
        d="M32.6664 0.59375C32.5069 0.59375 32.3711 0.710237 32.3461 0.868228L30.4959 12.6001C30.4891 12.643 30.4917 12.6868 30.5035 12.7286C30.5153 12.7704 30.536 12.8091 30.5642 12.8421C30.5924 12.8751 30.6274 12.9016 30.6669 12.9197C30.7063 12.9379 30.7492 12.9473 30.7926 12.9473H32.9868C33.1464 12.9473 33.2821 12.831 33.3071 12.6733L33.8506 9.22798C33.8628 9.15166 33.9018 9.08219 33.9606 9.03199C34.0194 8.98179 34.0941 8.95413 34.1714 8.95396H36.1656C38.4965 8.95396 40.4747 7.25367 40.8361 4.94916C41.2007 2.62562 39.3853 0.598565 36.8121 0.59375H32.6664ZM34.7992 3.21287H36.3952C37.7091 3.21287 38.137 3.98791 38.0017 4.84528C37.8664 5.70449 37.2023 6.33737 35.9308 6.33737H34.3064L34.7992 3.21287ZM45.2988 4.01085C44.7448 4.01291 44.1071 4.12619 43.3915 4.42428C41.7501 5.1083 40.9611 6.52265 40.6265 7.5536C40.6265 7.5536 39.5612 10.699 41.9689 12.4272C41.9689 12.4272 44.2014 14.0904 46.715 12.3243L46.6714 12.6001C46.6647 12.643 46.6673 12.6868 46.6791 12.7286C46.6909 12.7704 46.7116 12.8091 46.7398 12.8421C46.768 12.8751 46.803 12.9016 46.8425 12.9197C46.8819 12.9379 46.9248 12.9473 46.9682 12.9473H49.0505C49.1278 12.9471 49.2026 12.9194 49.2614 12.8691C49.3202 12.8188 49.3591 12.7492 49.3713 12.6728L50.6384 4.63868C50.6452 4.59581 50.6426 4.55198 50.6308 4.51021C50.6189 4.46844 50.5982 4.42973 50.57 4.39674C50.5418 4.36374 50.5068 4.33725 50.4674 4.31909C50.428 4.30092 50.3851 4.29151 50.3417 4.29151H48.2594C48.0993 4.29151 47.9636 4.408 47.9386 4.56553L47.8705 4.99777C47.8705 4.99777 46.9611 4.00465 45.2988 4.01085ZM45.3665 6.54856C45.6056 6.54856 45.8249 6.58112 46.0209 6.64441C46.9193 6.9331 47.4288 7.79574 47.2814 8.73177C47.0996 9.88425 46.1546 10.7331 44.943 10.7331C44.7038 10.7331 44.485 10.7003 44.289 10.6373C43.3906 10.3486 42.8776 9.48549 43.0255 8.54947C43.2071 7.39744 44.1548 6.54856 45.3665 6.54856Z"
        fill="white" />
    <path
        d="M21.6341 4.29147C21.5957 4.29141 21.5578 4.30044 21.5236 4.31782C21.4894 4.3352 21.4598 4.36043 21.4372 4.39146C21.4146 4.42248 21.3997 4.45842 21.3936 4.49632C21.3876 4.53422 21.3906 4.57301 21.4025 4.60952L23.6854 11.695L21.6208 15.0346C21.5208 15.1967 21.6371 15.4056 21.8278 15.4056H24.2674C24.3373 15.4057 24.4059 15.3877 24.4668 15.3534C24.5276 15.3192 24.5786 15.2698 24.6148 15.21L30.9911 4.66043C31.0892 4.49831 30.9725 4.29102 30.7831 4.29102H28.3435C28.2731 4.29099 28.2038 4.30931 28.1426 4.34416C28.0813 4.37902 28.0302 4.42922 27.9943 4.48982L25.4843 8.72806L24.2101 4.52147C24.1684 4.38457 24.0425 4.29124 23.8991 4.29124L21.6341 4.29147Z"
        fill="white" />
    <path
        d="M53.0063 0.59375C52.8467 0.59375 52.7109 0.710237 52.6859 0.868228L50.8357 12.6001C50.8289 12.643 50.8315 12.6868 50.8434 12.7286C50.8552 12.7704 50.8759 12.8091 50.9041 12.8421C50.9323 12.8751 50.9673 12.9016 51.0067 12.9197C51.0461 12.9379 51.089 12.9473 51.1324 12.9473H53.3262C53.4858 12.9473 53.6215 12.831 53.6465 12.6733L55.4972 0.940917C55.504 0.898005 55.5014 0.854136 55.4895 0.812336C55.4777 0.770536 55.4569 0.731799 55.4287 0.698797C55.4004 0.665795 55.3654 0.639313 55.3259 0.621178C55.2864 0.603042 55.2435 0.593685 55.2 0.59375H53.0063Z"
        fill="white" />
</svg>